<?xml version="1.0" standalone="no"?>
<!DOCTYPE svg PUBLIC "-//W3C//DTD SVG 20010904//EN"
 "http://www.w3.org/TR/2001/REC-SVG-20010904/DTD/svg10.dtd">
<svg version="1.0" xmlns="http://www.w3.org/2000/svg"
 width="190.000000pt" height="190.000000pt" viewBox="0 0 190.000000 190.000000"
 preserveAspectRatio="xMidYMid meet">

<g transform="translate(0.000000,190.000000) scale(0.100000,-0.100000)"
fill="currentColor" stroke="none">
<path d="M1398 1798 c-9 -7 -37 -47 -63 -88 -52 -83 -116 -154 -158 -176 -44
-23 -112 -32 -169 -22 -77 13 -169 50 -387 156 -257 123 -259 124 -282 112
-23 -13 -35 -36 -133 -258 -49 -110 -76 -183 -74 -200 3 -23 17 -34 108 -79
217 -108 419 -197 532 -234 217 -71 421 -73 589 -4 152 61 290 189 418 385 83
126 87 135 72 158 -12 19 -403 262 -422 262 -8 0 -22 -6 -31 -12z"/>
<path d="M660 921 c-203 -46 -372 -180 -525 -415 -72 -110 -79 -124 -76 -157
1 -9 86 -69 206 -143 162 -101 211 -127 230 -122 15 4 35 26 55 61 84 146 150
209 249 235 35 9 57 8 117 -5 93 -21 141 -40 399 -164 115 -56 222 -101 237
-101 18 0 33 8 43 23 35 54 186 413 183 437 -3 27 -43 50 -303 172 -391 183
-598 229 -815 179z"/>
</g>
</svg>